#!OML:ASF E:/inclinewalkrobotboard/Project1/Captureday1/Session1/subject1.ASF
:FULLY-SPECIFIED
:DEGREES
113
root 0 0 0 -4.424744572142844 -18.54118001148416 3.7223392942154376
lowerback 6.952343415175702 1.2805299846005724 -0.16082232479834313
upperback 2.777650440611718 1.6908082611130304 -1.2575899645785555
thorax -0.9294909758478092 0.8141773838477175 -1.34672203577716
lowerneck -3.9287906054331696 3.449408847256018 -3.371947777488358
upperneck 15.473431049361988 4.730193482533009 -0.5594546208271556
head 5.242032202186756 2.1692884946792583 0.7558113570321461
rclavicle -7.704950652029395E-16 7.578827802858862E-16
rhumerus 22.274875946366286 15.83541238635025 -66.1442726944137
rradius 94.58784808957006
rwrist -12.150014169514705
rhand -38.67392014622935 -17.672192052704247
rfingers 7.1250199999999655
rthumb -11.649362128982617 -47.24511016020759
lclavicle -3.1199898370914845E-15 6.0067517839589E-16
lhumerus -30.75375735521709 -9.645765812002793 85.12763183024389
lradius 27.34429478519872
lwrist -30.833475889811197
lhand -2.162168366140536 19.824937215053318
lfingers 7.082533512156602
lthumb 23.26020132723714 60.5459099469622
rfemur -10.62104490379272 15.381457134771086 16.29687487528435
rtibia 29.612129711348423
rfoot -19.527165024263894 -12.340112559434763
rtoes -7.093435463319015
lfemur -25.242489393182197 -1.2689285303032607 -10.078911549161385
ltibia 49.477218533007346
lfoot -5.414964752295739 0.5938867929691991
ltoes -8.266153529080558
114
root 0 0 0 -4.413078484077679 -18.541284325907505 3.7148012312137375
lowerback 6.961902732117454 1.2842989029029974 -0.15614626819502342
upperback 2.779460962482685 1.6958501315693686 -1.2583228416605121
thorax -0.9329763712113497 0.8166541158713785 -1.3507232115014491
lowerneck -3.9319672597750075 3.4440360068464 -3.3715011310195107
upperneck 15.451754152187776 4.723994419602011 -0.5549789276152612
head 5.236449136979012 2.166456440943013 0.7567111077232207
rclavicle -7.981109442007365E-16 7.647032218133141E-16
rhumerus 22.41129440440714 15.543599790867157 -65.99817960744012
rradius 94.3352443934349
rwrist -11.946155974100286
rhand -38.63990708408998 -17.54269317529832
rfingers 7.1250199999999655
rthumb -11.616901496399816 -47.11808138266266
lclavicle -3.117592742811548E-15 6.010298789018325E-16
lhumerus -30.703981560209414 -9.643861171656864 85.10108136651928
lradius 27.40284073986148
lwrist -30.77193945362783
lhand -2.186814485301026 19.83967853108897
lfingers 7.082573118373194
lthumb 23.23651441482537 60.537376677912754
rfemur -10.647608177610222 15.356651621228849 16.29321115202741
rtibia 29.658389285551905
rfoot -19.51266020107651 -12.344731995695565
rtoes -7.084262281002205
lfemur -25.268659075939393 -1.249434467993487 -10.077108697614822
ltibia 49.528824364012436
lfoot -5.419580974478477 0.5825939901366715
ltoes -8.279271712166253
115
root 0 0 0 -4.401387502859318 -18.54595952488289 3.707934621498367
lowerback 6.9722486458740365 1.2880140671574047 -0.15092307910583447
upperback 2.7813874684883118 1.7008399685593438 -1.2588678972953153
thorax -0.9367794493923016 0.8191043441709871 -1.354833195397343
lowerneck -3.9357419913656826 3.4393070015826583 -3.370501600378374
upperneck 15.427775602527714 4.718832433508124 -0.5514639169739901
head 5.230156284693915 2.1640842266113047 0.7572838279459613
rclavicle -8.26235602255079E-16 7.713599181959723E-16
rhumerus 22.564690862342697 15.238907093305016 -65.84205914966819
rradius 94.08760369610833
rwrist -11.743601367607642
rhand -38.61172146900958 -17.41507845519964
rfingers 7.125019999999966
rthumb -11.590076696167703 -46.99305379973278
lclavicle -3.1152799970241694E-15 6.015280169493294E-16
lhumerus -30.66395344111581 -9.645476287376576 85.0809742008728
lradius 27.454578998662953
lwrist -30.719140580884208
lhand -2.206577587107578 19.85263980911235
lfingers 7.082610790908698
lthumb 23.217553799071208 60.529641036641486
rfemur -10.630150900197933 15.352189299247538 16.305308406495875
rtibia 29.65291534309776
rfoot -19.526698549166362 -12.354065785942552
rtoes -7.0818753521031566
lfemur -25.293761313747225 -1.231866214198992 -10.074825103487251
ltibia 49.575660375383556
lfoot -5.422752856959954 0.5727411443222454
ltoes -8.290457853570707
116
root 0 0 0 -4.381424033273675 -18.53954683702303 3.692098507152789
lowerback 6.98564851235038 1.29349955062365 -0.1377280436115209
upperback 2.779961877081903 1.7089472887325095 -1.2575479369450833
thorax -0.9459397926218185 0.8230881509671869 -1.361765071568953
lowerneck -3.9575683466299147 3.434352358218718 -3.363505356725381
upperneck 15.391677355486614 4.715185913177033 -0.5566796944253971
head 5.222942517918051 2.162542131789114 0.7538198873082673
rclavicle -8.770555369070262E-16 7.864392976691118E-16
rhumerus 22.864731711174823 14.706670898192211 -65.56029944419367
rradius 93.72637021767514
rwrist -11.436674188080556
rhand -38.59337322932343 -17.221884091795665
rfingers 7.125019999999966
rthumb -11.572955972416072 -46.803814644735695
lclavicle -3.103518878470701E-15 6.001460131361079E-16
lhumerus -30.653624628681666 -9.64833183066578 85.0759334735126
lradius 27.471896651712093
lwrist -30.696843088317735
lhand -2.2145888922696937 19.857153364727623
lfingers 7.082601705141789
lthumb 23.20970312251519 60.52124028268324
rfemur -10.431398814401787 15.404694971943549 16.39696335621143
rtibia 29.465921256653225
rfoot -19.59864248710757 -12.377263588242966
rtoes -7.055549361282368
lfemur -25.3545012474299 -1.1965450373059383 -10.069860233807553
ltibia 49.6867706124694
lfoot -5.409086704781623 0.5313686638077364
ltoes -8.314418574845607
